<?xml version="1.0" standalone="no"?>
<!DOCTYPE svg PUBLIC "-//W3C//DTD SVG 20010904//EN"
 "http://www.w3.org/TR/2001/REC-SVG-20010904/DTD/svg10.dtd">
<svg version="1.0" xmlns="http://www.w3.org/2000/svg"
 width="267.000000pt" height="267.000000pt" viewBox="0 0 267.000000 267.000000"
 preserveAspectRatio="xMidYMid meet">
<metadata>
Created by potrace 1.14, written by Peter Selinger 2001-2017
</metadata>
<g transform="translate(0.000000,267.000000) scale(0.100000,-0.100000)"
fill="#000000" stroke="none">
<path d="M430 2542 c-157 -41 -278 -156 -337 -319 -23 -63 -24 -75 -19 -247 3
-100 7 -190 9 -201 3 -11 8 -65 11 -120 4 -55 8 -120 11 -145 2 -25 7 -85 10
-135 3 -49 8 -112 10 -140 11 -136 15 -197 20 -280 3 -49 7 -110 10 -135 2
-25 7 -81 10 -125 13 -172 67 -297 176 -405 74 -75 190 -141 279 -160 40 -8
247 -10 755 -8 l700 3 79 38 c139 66 235 157 299 283 45 88 58 162 72 394 3
47 7 105 10 130 2 25 7 88 10 140 3 52 8 115 10 140 2 25 7 83 10 130 8 112
15 198 30 400 3 30 8 123 11 206 6 136 5 157 -14 220 -48 158 -163 276 -320
330 l-67 23 -855 0 c-774 0 -861 -2 -920 -17z"/>
</g>
</svg>
